<?xml version="1.0" encoding="UTF-8" standalone="no"?>
<svg width="24px" height="16px" viewBox="0 0 24 16" version="1.1" xmlns="http://www.w3.org/2000/svg" xmlns:xlink="http://www.w3.org/1999/xlink" xmlns:sketch="http://www.bohemiancoding.com/sketch/ns">
    <!-- Generator: bin/sketchtool 1.4 (305) - http://www.bohemiancoding.com/sketch -->
    <title>buttons/round/google+</title>
    <desc>Created with bin/sketchtool.</desc>
    <defs></defs>
    <g id="Web-1024x1024" stroke="none" stroke-width="1" fill="none" fill-rule="evenodd" sketch:type="MSPage">
        <g id="Desktop-Home" sketch:type="MSArtboardGroup" transform="translate(-917.000000, -26.000000)" fill="#EB1F32">
            <g id="Header" sketch:type="MSLayerGroup">
                <g id="Social" sketch:type="MSShapeGroup">
                    <g transform="translate(853.000000, 26.000000)">
                        <g id="buttons/round/google+" transform="translate(64.000000, 0.000000)">
                            <path d="M7.83999953,7.02805794 L7.83999953,9.12966459 L12.8628704,9.12966459 C12.6147312,12.0766893 10.1628791,13.3334854 7.84850535,13.3334854 C4.88750678,13.3334854 2.30368071,11.0037405 2.30368071,7.73835494 C2.30368071,4.55735932 4.76672409,2.10756073 7.85500623,2.10756073 C10.2376696,2.10756073 11.6416772,3.62645773 11.6416772,3.62645773 L13.1131846,2.1026395 C11.6416771,1.04058531 11.2244666,4.31696493e-16 7.77979045,4.31696493e-16 C3.39339817,-6.07558801e-05 -8.8817842e-16,3.70203804 -8.8817842e-16,7.7008078 C-8.8817842e-16,11.6191368 3.19205319,15.4398918 7.89158127,15.4398918 C12.0248645,15.4398918 15.0504466,12.6084248 15.0504466,8.42137254 C15.0504466,7.5380428 14.922197,7.02751114 14.922197,7.02751114 L7.83999953,7.02805794 Z M22.9528743,6.54389564 L20.44172,6.54389564 L20.44172,3.91051902 C20.44172,3.70959694 20.2862771,3.54619434 20.0950657,3.54619434 L19.3800286,3.54619434 C19.18748,3.54619434 19.0320371,3.70959694 19.0320371,3.91051902 L19.0320371,6.54389564 L16.5208829,6.54389564 C16.3296714,6.54389564 16.17356,6.70764889 16.17356,6.90892162 L16.17356,7.65896058 C16.17356,7.8602333 16.3296714,8.02328525 16.5208829,8.02328525 L19.0320371,8.02328525 L19.0320371,10.6580645 C19.0320371,10.8593372 19.18748,11.0223891 19.3800286,11.0223891 L20.0950657,11.0223891 C20.2862771,11.0223891 20.44172,10.8593372 20.44172,10.6580645 L20.44172,8.0229346 L22.9528743,8.0229346 C23.1440857,8.0229346 23.3001971,7.85988265 23.3001971,7.65860993 L23.3001971,6.90857097 C23.3001971,6.70729824 23.1440857,6.54389564 22.9528743,6.54389564 Z" id="path2998"></path>
                        </g>
                    </g>
                </g>
            </g>
        </g>
    </g>
</svg>