<?xml version="1.0" encoding="UTF-8" standalone="no"?>
<svg width="19px" height="16px" viewBox="0 0 19 16" version="1.1" xmlns="http://www.w3.org/2000/svg" xmlns:xlink="http://www.w3.org/1999/xlink" xmlns:sketch="http://www.bohemiancoding.com/sketch/ns">
    <!-- Generator: bin/sketchtool 1.4 (305) - http://www.bohemiancoding.com/sketch -->
    <title>buttons/round/twitter</title>
    <desc>Created with bin/sketchtool.</desc>
    <defs></defs>
    <g id="Web-1024x1024" stroke="none" stroke-width="1" fill="none" fill-rule="evenodd" sketch:type="MSPage">
        <g id="Desktop-Home" sketch:type="MSArtboardGroup" transform="translate(-949.000000, -27.000000)" fill="#00ADF2">
            <g id="Header" sketch:type="MSLayerGroup">
                <g id="Social" sketch:type="MSShapeGroup">
                    <g transform="translate(853.000000, 26.000000)">
                        <g id="buttons/round/twitter" transform="translate(96.000000, 1.000000)">
                            <path d="M9.38362398,4.50367766 L9.42425971,5.18241422 L8.74699745,5.09930362 C6.28176282,4.78071299 4.12806883,3.7002752 2.29946073,1.88569379 L1.40547455,0.98532896 L1.17520538,1.65021375 C0.687576551,3.13235278 0.999117191,4.6976024 2.01501058,5.75033665 C2.55682039,6.33211085 2.43491318,6.41522145 1.50029126,6.06892728 C1.17520538,5.95811315 0.890755229,5.87500255 0.863664739,5.91655785 C0.768848022,6.01352022 1.09393391,7.27403097 1.35129357,7.77269457 C1.70346994,8.4652829 2.42136794,9.14401946 3.20699216,9.54572069 L3.87070918,9.86431132 L3.08508495,9.87816308 C2.32655122,9.87816308 2.29946073,9.89201485 2.3807322,10.1829019 C2.65163711,11.0832668 3.72171148,12.0390387 4.91369306,12.4545917 L5.75349826,12.7454788 L5.02205502,13.1887353 C3.9384354,13.8259165 2.66518235,14.1860625 1.3919293,14.213766 C0.782393267,14.2276178 0.281219195,14.2830248 0.281219195,14.3245801 C0.281219195,14.4630978 1.93373911,15.2387967 2.89545152,15.5435356 C5.78058875,16.4439004 9.20753579,16.056051 11.7811324,14.5185049 C13.6097405,13.4242153 15.4383486,11.249488 16.291699,9.14401946 C16.7522374,8.02202637 17.2127757,5.97196492 17.2127757,4.98848949 C17.2127757,4.35130823 17.2534114,4.26819763 18.0119452,3.50635047 C18.4589383,3.06309394 18.8788409,2.57828211 18.9601123,2.43976445 C19.0955648,2.17658088 19.0820195,2.17658088 18.391212,2.41206091 C17.2398662,2.82761391 17.0773233,2.77220685 17.6462236,2.14887735 C18.0661262,1.70562082 18.5673002,0.902218361 18.5673002,0.66673833 C18.5673002,0.62518303 18.3641215,0.694441863 18.1338524,0.819107762 C17.890038,0.957625427 17.3482282,1.16540193 16.9418708,1.29006782 L16.2104276,1.52554786 L15.5467105,1.06843956 C15.1809889,0.819107762 14.6662696,0.542072431 14.3953647,0.458961832 C13.7045572,0.2650371 12.6480281,0.292740633 12.0249468,0.514368898 C10.3317911,1.13769839 9.26171677,2.74450331 9.38362398,4.50367766 Z" id="Twitter"></path>
                        </g>
                    </g>
                </g>
            </g>
        </g>
    </g>
</svg>