<svg xmlns="http://www.w3.org/2000/svg" width="48" height="48" viewBox="0 0 48 48">
    <g fill="#C9C8CA" fill-rule="evenodd">
        <path d="M0 24C0 10.745 10.584 0 23.64 0c13.057 0 23.641 10.745 23.641 24s-10.584 24-23.64 24C10.584 48 0 37.255 0 24zm35.945-4.83s-.246-1.804-1.001-2.597c-.958-1.043-2.031-1.048-2.523-1.108-3.523-.265-8.809-.265-8.809-.265h-.011s-5.285 0-8.81.265c-.492.06-1.564.065-2.523 1.108-.754.793-1 2.596-1 2.596s-.252 2.117-.252 4.234v1.985c0 2.117.252 4.234.252 4.234s.246 1.803 1 2.596c.959 1.043 2.217 1.01 2.777 1.119 2.015.2 8.562.263 8.562.263s5.29-.008 8.814-.273c.492-.061 1.565-.066 2.523-1.109.755-.793 1-2.596 1-2.596s.253-2.117.253-4.234v-1.985c0-2.117-.252-4.234-.252-4.234z"/>
        <path d="M21.007 27.793l-.001-7.35 6.803 3.688z"/>
    </g>
</svg>
